<?xml version="1.0" encoding="UTF-8" standalone="no"?>
<svg
   xmlns:dc="http://purl.org/dc/elements/1.1/"
   xmlns:cc="http://creativecommons.org/ns#"
   xmlns:rdf="http://www.w3.org/1999/02/22-rdf-syntax-ns#"
   xmlns:svg="http://www.w3.org/2000/svg"
   xmlns="http://www.w3.org/2000/svg"
   xmlns:sodipodi="http://sodipodi.sourceforge.net/DTD/sodipodi-0.dtd"
   xmlns:inkscape="http://www.inkscape.org/namespaces/inkscape"
   inkscape:version="1.0 (4035a4fb49, 2020-05-01)"
   sodipodi:docname="bootstrap-brands.svg"
   id="svg4"
   version="1.1"
   viewBox="0 0 448 512"
   role="img"
   class="svg-inline--fa fa-bootstrap fa-w-14"
   data-icon="bootstrap"
   data-prefix="fab"
   focusable="false"
   aria-hidden="true">
  <metadata
     id="metadata10">
    <rdf:RDF>
      <cc:Work
         rdf:about="">
        <dc:format>image/svg+xml</dc:format>
        <dc:type
           rdf:resource="http://purl.org/dc/dcmitype/StillImage" />
      </cc:Work>
    </rdf:RDF>
  </metadata>
  <defs
     id="defs8" />
  <sodipodi:namedview
     inkscape:current-layer="svg4"
     inkscape:window-maximized="1"
     inkscape:window-y="-8"
     inkscape:window-x="-8"
     inkscape:cy="232.18605"
     inkscape:cx="224"
     inkscape:zoom="1.6796875"
     showgrid="false"
     id="namedview6"
     inkscape:window-height="1027"
     inkscape:window-width="1920"
     inkscape:pageshadow="2"
     inkscape:pageopacity="0"
     guidetolerance="10"
     gridtolerance="10"
     objecttolerance="10"
     borderopacity="1"
     bordercolor="#666666"
     pagecolor="#ffffff" />
  <path
     id="path2"
     d="M292.3 311.93c0 42.41-39.72 41.43-43.92 41.43h-80.89v-81.69h80.89c42.56 0 43.92 31.9 43.92 40.26zm-50.15-73.13c.67 0 38.44 1 38.44-36.31 0-15.52-3.51-35.87-38.44-35.87h-74.66v72.18h74.66zM448 106.67v298.66A74.89 74.89 0 0 1 373.33 480H74.67A74.89 74.89 0 0 1 0 405.33V106.67A74.89 74.89 0 0 1 74.67 32h298.66A74.89 74.89 0 0 1 448 106.67zM338.05 317.86c0-21.57-6.65-58.29-49.05-67.35v-.73c22.91-9.78 37.34-28.25 37.34-55.64 0-7 2-64.78-77.6-64.78h-127v261.33c128.23 0 139.87 1.68 163.6-5.71 14.21-4.42 52.71-17.98 52.71-67.12z"
     fill="currentColor" />
  <path
     id="path12"
     d="M 122.19535,260.16744 V 129.78605 h 67.72458 c 72.03309,0 75.81208,0.12675 87.3916,2.93132 25.07041,6.07208 40.6892,20.55282 46.81239,43.40144 1.87949,7.01331 2.20626,23.42493 0.61849,31.06259 -3.7375,17.97833 -14.06285,31.28506 -30.96239,39.90255 -2.71494,1.38442 -4.84723,2.78417 -4.73844,3.11056 0.1088,0.32639 2.46407,1.24053 5.23393,2.03141 13.49672,3.85373 24.67651,11.75562 31.81847,22.48933 7.35967,11.06091 10.85002,23.25808 11.42542,39.92661 1.23097,35.65964 -16.62625,59.18287 -53.38917,70.32926 -16.73938,5.07533 -25.82001,5.56889 -102.54883,5.57387 l -59.38605,0.004 z m 141.02393,91.79758 c 11.38136,-3.01818 20.38827,-9.8153 24.70532,-18.64404 3.51314,-7.18466 4.24273,-10.85869 4.24135,-21.35819 -0.001,-8.00132 -0.18629,-9.82142 -1.39351,-13.69302 -4.15899,-13.33811 -12.49486,-21.22031 -26.58639,-25.13949 -4.7045,-1.30843 -5.32567,-1.32694 -50.75349,-1.51207 l -45.9907,-0.18743 v 41.12764 41.12765 l 45.39535,-0.19932 c 44.68674,-0.19622 45.47319,-0.21997 50.38207,-1.52173 z m -9.45708,-114.334 c 11.4343,-3.00402 18.90716,-8.64649 23.46069,-17.71427 4.90813,-9.7739 4.59008,-28.8142 -0.64188,-38.42704 -2.05071,-3.76784 -7.32041,-8.66679 -11.5299,-10.71872 -8.6437,-4.21341 -14.1834,-4.64599 -59.65576,-4.65835 l -37.95349,-0.0103 v 36.64782 36.64783 l 40.63256,-0.21942 c 39.76444,-0.21475 40.74056,-0.24781 45.68778,-1.54754 z"
     style="fill:none;stroke-width:0.595349" />
  <path
     id="path14"
     d="M 65.934884,479.17904 C 49.214562,477.04722 34.161544,469.66373 22.248908,457.75109 9.9133291,445.41551 2.7591923,430.46198 0.76428246,412.84406 0.27888253,408.55728 0.14649338,364.15779 0.28507053,252.13023 L 0.47654531,97.339535 1.7340114,91.981395 C 5.7320127,74.945668 13.589046,61.52056 25.84918,50.776431 35.82255,42.036301 47.606787,36.30334 61.361283,33.500007 66.228891,32.507929 75.710559,32.446512 224,32.446512 c 148.28944,0 157.77111,0.06142 162.63872,1.053495 31.00865,6.31994 53.54133,28.852627 59.86127,59.861276 0.99208,4.867608 1.0535,14.349277 1.0535,162.638717 0,148.28944 -0.0614,157.77111 -1.0535,162.63872 -3.13266,15.37036 -10.05282,28.41397 -20.75006,39.11121 -10.38519,10.38518 -22.39894,16.91759 -37.73133,20.51617 l -5.35813,1.25759 -156.27907,0.0933 C 137.62561,479.66999 68.301705,479.48077 65.934884,479.179 Z M 262.10233,389.99785 c 33.5307,-3.8489 58.57883,-18.31303 69.18189,-39.94932 7.42115,-15.14336 9.02834,-35.29096 4.35484,-54.59196 -5.37712,-22.20692 -19.70498,-37.5672 -40.70136,-43.6342 -2.66969,-0.77142 -4.85398,-1.56714 -4.85398,-1.76826 0,-0.20113 1.27256,-0.98288 2.82791,-1.73723 4.89371,-2.37347 12.26106,-7.47178 16.42245,-11.36456 7.26062,-6.79195 12.94706,-16.86561 15.71735,-27.8436 1.30415,-5.16804 1.47559,-25.47684 0.25752,-30.50407 -3.17119,-13.08808 -8.22955,-22.45598 -16.25493,-30.10357 -9.28454,-8.84749 -21.38925,-14.53887 -37.49135,-17.62765 -6.69597,-1.28446 -7.68183,-1.30353 -78.37197,-1.51649 L 121.6,129.14127 v 131.04986 131.04985 l 67.12558,-0.26278 c 46.91957,-0.18369 69.0073,-0.47879 73.37675,-0.98035 z"
     style="fill:#ffffff;stroke-width:0.595349" />
  <path
     id="path16"
     d="m 168.03721,312.55828 v -40.53244 l 45.69302,0.18773 c 45.03328,0.18502 45.76044,0.20671 50.36172,1.50231 13.18599,3.71281 21.82756,11.61667 25.8182,23.61418 1.46115,4.39281 1.60244,5.63473 1.63084,14.33506 0.0345,10.54763 -0.67546,14.41578 -3.82413,20.83721 -4.47245,9.12113 -11.82512,14.90131 -23.64544,18.58844 l -5.24351,1.63562 -45.39535,0.18217 -45.39535,0.18216 z"
     style="fill:#ffffff;stroke-width:0.595349" />
  <path
     id="path18"
     d="m 168.03721,202.71066 v -36.09198 l 41.82326,0.2484 c 46.30322,0.275 45.98525,0.25026 54.32558,4.22718 11.08514,5.28572 15.82572,14.26927 15.90141,30.13365 0.0235,4.92372 -0.29087,8.80166 -0.92904,11.46047 -2.89505,12.06173 -11.76154,20.6428 -25.21209,24.4005 -4.52575,1.26437 -5.67867,1.30271 -45.27656,1.50558 l -40.63256,0.20817 z"
     style="fill:#ffffff;stroke-width:0.595349" />
  <path
     id="path20"
     d="m 168.03721,202.70172 v -35.93428 l 29.91628,0.26685 c 57.78431,0.51543 57.94469,0.52567 65.71357,4.19389 7.84125,3.70239 12.58968,9.48308 14.91713,18.15997 0.75239,2.80494 1.01677,6.1454 1.00775,12.73278 -0.011,8.0199 -0.16558,9.36125 -1.51645,13.15843 -3.61346,10.1571 -10.95832,17.07558 -22.01463,20.73662 -5.97071,1.97706 -6.52375,2.00106 -54.53528,2.36568 l -33.48837,0.25434 z"
     style="fill:#ffffff;stroke-width:0.595349" />
</svg>
