<?xml version="1.0" encoding="UTF-8" standalone="no"?>
<svg
   xmlns:dc="http://purl.org/dc/elements/1.1/"
   xmlns:cc="http://creativecommons.org/ns#"
   xmlns:rdf="http://www.w3.org/1999/02/22-rdf-syntax-ns#"
   xmlns:svg="http://www.w3.org/2000/svg"
   xmlns="http://www.w3.org/2000/svg"
   xmlns:sodipodi="http://sodipodi.sourceforge.net/DTD/sodipodi-0.dtd"
   xmlns:inkscape="http://www.inkscape.org/namespaces/inkscape"
   inkscape:version="1.0 (4035a4fb49, 2020-05-01)"
   sodipodi:docname="Curved_Arrow.svg"
   version="1.1"
   id="Layer_1"
   x="0px"
   y="0px"
   width="776.0918"
   height="693.66541"
   viewBox="0 0 776.09175 693.66538"
   enable-background="new 0 0 595.28 841.89"
   xml:space="preserve"><sodipodi:namedview
     inkscape:current-layer="Layer_1"
     inkscape:window-maximized="1"
     inkscape:window-y="-8"
     inkscape:window-x="-8"
     inkscape:cy="346.8327"
     inkscape:cx="388.0459"
     inkscape:zoom="1.2397908"
     showgrid="false"
     id="namedview7"
     inkscape:window-height="1027"
     inkscape:window-width="1920"
     inkscape:pageshadow="2"
     inkscape:pageopacity="0"
     guidetolerance="10"
     gridtolerance="10"
     objecttolerance="10"
     borderopacity="1"
     bordercolor="#666666"
     pagecolor="#ffffff" /><metadata
     id="metadata11"><rdf:RDF><cc:Work
         rdf:about=""><dc:format>image/svg+xml</dc:format><dc:type
           rdf:resource="http://purl.org/dc/dcmitype/StillImage" /><dc:title /></cc:Work></rdf:RDF></metadata><defs
     id="defs9" /><g
     id="g3"
     transform="matrix(2.7190747,0,0,3.1037754,-326.9763,-1172.9045)"><path
       d="m 130.838,381.118 c 1.125,28.749 5.277,54.82 12.695,78.018 7.205,22.53 18.847,40.222 36.812,53.747 52.018,39.16 153.369,16.572 153.369,16.572 l -4.632,-32.843 72.918,42.778 -58.597,58.775 -3.85,-27.303 c 0,0 -100.347,18.529 -163.905,-34.881 -37.659,-31.646 -53.293,-84.021 -51.593,-153.962 0.266,-0.247 4.728,-0.908 6.783,-0.901 z"
       id="path5"
       style="clip-rule:evenodd;fill-rule:evenodd" /></g><path
     id="path9"
     d="m 601.85379,640.63965 c -2.82109,-22.96156 -5.20229,-41.84229 -5.29155,-41.95717 -0.0893,-0.11488 -3.03253,0.3252 -6.54057,0.97795 -49.21152,9.157 -120.04727,10.92414 -177.88272,4.43764 C 273.9224,588.5965 164.90002,527.34473 99.8163,428.62664 56.422032,362.80681 28.521993,276.18853 17.092602,171.80318 12.631279,131.05763 11.353668,107.67028 10.807584,56.752624 10.353653,14.427471 10.386086,13.070862 11.862589,12.622527 c 2.32807,-0.706911 11.739328,-2.123934 14.151813,-2.130794 2.444502,-0.007 2.202697,-1.9097377 3.945506,31.047533 3.98467,75.351844 16.157358,152.011234 33.940529,213.745734 21.521256,74.71132 56.973173,130.91048 107.827663,170.93076 32.1208,25.27769 75.37701,43.94769 126.15134,54.44875 68.39623,14.14558 158.54635,13.25997 246.64447,-2.42296 9.49956,-1.69108 35.72815,-7.16685 36.09989,-7.53661 0.1137,-0.1131 -2.51779,-22.2028 -5.84776,-49.08823 -3.32998,-26.88543 -6.0545,-49.65983 -6.0545,-50.60977 0,-1.61948 0.23889,-1.55475 3.83129,1.03807 2.10721,1.52089 41.03515,27.64165 86.50653,58.04614 45.47138,30.40449 88.00197,58.89176 94.51243,63.30504 l 11.83719,8.02416 -77.41546,88.66159 c -42.5785,48.76388 -78.22434,89.48159 -79.21297,90.4838 l -1.79752,1.8222 z"
     style="fill:#ececec;stroke-width:0.806588" /><path
     id="path11"
     d="m 607.36159,680.55836 c -0.0419,-0.11091 -2.37931,-18.47926 -5.19426,-40.81856 -2.81496,-22.33929 -5.31449,-40.81329 -5.55451,-41.05331 -0.24003,-0.24003 -6.16005,0.50899 -13.15561,1.66446 -27.9677,4.61951 -48.31853,6.20954 -86.65431,6.77036 -51.29914,0.75048 -89.79822,-2.38775 -131.34146,-10.70625 C 285.12959,580.32967 217.4313,548.37141 163.81452,501.22383 143.64783,483.49036 122.87395,460.5341 107.44634,438.93394 53.234798,363.03246 21.251753,255.00504 12.955791,119.77827 11.96894,103.69229 10.664974,28.966662 11.200724,19.201684 c 0.387991,-7.071809 -0.296827,-6.544903 10.120937,-7.787148 5.157186,-0.614958 5.557192,-0.548513 6.149605,1.021504 0.348495,0.923584 1.056112,9.664462 1.572483,19.424173 3.121877,59.005317 9.354085,110.606937 19.469473,161.203937 19.37791,96.92795 48.216396,159.87689 95.528318,208.52021 30.92798,31.79831 64.38589,52.37659 109.70751,67.47557 45.61894,15.19803 90.87495,21.60154 152.84837,21.62733 45.12111,0.0188 80.43748,-2.80073 125.02109,-9.98114 16.61395,-2.67577 46.89927,-8.73435 48.44923,-9.69228 0.77741,-0.48046 -0.29079,-11.29897 -4.78743,-48.48616 -5.63236,-46.57956 -6.14703,-51.49735 -5.3895,-51.49735 0.19948,0 22.24957,14.67848 49.0002,32.61884 26.75063,17.94037 67.27672,45.07196 90.05797,60.29243 22.78124,15.22047 44.66493,29.90907 48.63043,32.64132 l 7.20999,4.96772 -61.89508,70.85152 c -97.69353,111.83013 -95.20796,109.01611 -95.53273,108.1562 z"
     style="fill:#f2f2f2;stroke-width:0.806588" /></svg>
