<?xml version="1.0" encoding="UTF-8" standalone="no"?>
<svg
   xmlns:dc="http://purl.org/dc/elements/1.1/"
   xmlns:cc="http://creativecommons.org/ns#"
   xmlns:rdf="http://www.w3.org/1999/02/22-rdf-syntax-ns#"
   xmlns:svg="http://www.w3.org/2000/svg"
   xmlns="http://www.w3.org/2000/svg"
   xmlns:sodipodi="http://sodipodi.sourceforge.net/DTD/sodipodi-0.dtd"
   xmlns:inkscape="http://www.inkscape.org/namespaces/inkscape"
   inkscape:version="1.0 (4035a4fb49, 2020-05-01)"
   sodipodi:docname="right_arrow.svg"
   id="svg4"
   version="1.1"
   viewBox="0 0 512 512">
  <metadata
     id="metadata10">
    <rdf:RDF>
      <cc:Work
         rdf:about="">
        <dc:format>image/svg+xml</dc:format>
        <dc:type
           rdf:resource="http://purl.org/dc/dcmitype/StillImage" />
        <dc:title></dc:title>
      </cc:Work>
    </rdf:RDF>
  </metadata>
  <defs
     id="defs8" />
  <sodipodi:namedview
     inkscape:current-layer="svg4"
     inkscape:window-maximized="1"
     inkscape:window-y="-8"
     inkscape:window-x="-8"
     inkscape:cy="256"
     inkscape:cx="172.94884"
     inkscape:zoom="1.6796875"
     showgrid="false"
     id="namedview6"
     inkscape:window-height="1027"
     inkscape:window-width="1920"
     inkscape:pageshadow="2"
     inkscape:pageopacity="0"
     guidetolerance="10"
     gridtolerance="10"
     objecttolerance="10"
     borderopacity="1"
     bordercolor="#666666"
     pagecolor="#ffffff" />
  <path
     id="path2"
     d="M 256,8 C 393,8 504,119 504,256 504,393 393,504 256,504 119,504 8,393 8,256 8,119 119,8 256,8 Z M 227.1,151.6 302.6,224 H 120 c -13.3,0 -24,10.7 -24,24 v 16 c 0,13.3 10.7,24 24,24 h 182.6 l -75.5,72.4 c -9.7,9.3 -9.9,24.8 -0.4,34.3 l 11,10.9 c 9.4,9.4 24.6,9.4 33.9,0 L 404.3,273 c 9.4,-9.4 9.4,-24.6 0,-33.9 L 271.6,106.4 C 262.2,97 247,97 237.7,106.4 l -11,10.9 c -9.5,9.5 -9.3,25 0.4,34.3 z" />
</svg>
